<?xml version="1.0" encoding="UTF-8"?>
<svg width="26px" height="19px" viewBox="0 0 26 19" version="1.1" xmlns="http://www.w3.org/2000/svg" xmlns:xlink="http://www.w3.org/1999/xlink">
    <!-- Generator: Sketch 42 (36781) - http://www.bohemiancoding.com/sketch -->
    <title>headphones</title>
    <desc>Created with Sketch.</desc>
    <defs></defs>
    <g id="Page-1" stroke="none" stroke-width="1" fill="none" fill-rule="evenodd">
        <g id="Full-Color" transform="translate(-250.000000, -453.000000)">
            <g id="headphones" transform="translate(250.000000, 453.000000)">
                <path d="M24.3701,13.5098 C23.9301,11.7808 22.3701,10.4998 20.5001,10.4998 C19.9501,10.4998 19.5001,10.9498 19.5001,11.4998 L19.5001,17.4998 C19.5001,18.0498 19.9501,18.4998 20.5001,18.4998 C22.3701,18.4998 23.9301,17.2198 24.3701,15.4898 C24.4601,15.1698 24.5001,14.8398 24.5001,14.4998 C24.5001,14.1598 24.4601,13.8298 24.3701,13.5098 M5.5001,11.4998 L5.5001,17.4998 C5.5001,18.0498 5.0501,18.4998 4.5001,18.4998 C2.6301,18.4998 1.0701,17.2198 0.6301,15.4898 C0.5401,15.1698 0.5001,14.8398 0.5001,14.4998 C0.5001,14.1598 0.5401,13.8298 0.6301,13.5098 C1.0701,11.7808 2.6301,10.4998 4.5001,10.4998 C5.0501,10.4998 5.5001,10.9498 5.5001,11.4998" id="Fill-87" fill="#339EFF"></path>
                <path d="M24.3701,13.5098 C23.9301,11.7808 22.3701,10.4998 20.5001,10.4998 C19.9501,10.4998 19.5001,10.9498 19.5001,11.4998 L19.5001,17.4998 C19.5001,18.0498 19.9501,18.4998 20.5001,18.4998 C22.3701,18.4998 23.9301,17.2198 24.3701,15.4898 C24.4601,15.1698 24.5001,14.8398 24.5001,14.4998 C24.5001,14.1598 24.4601,13.8298 24.3701,13.5098 Z M5.5001,11.4998 L5.5001,17.4998 C5.5001,18.0498 5.0501,18.4998 4.5001,18.4998 C2.6301,18.4998 1.0701,17.2198 0.6301,15.4898 C0.5401,15.1698 0.5001,14.8398 0.5001,14.4998 C0.5001,14.1598 0.5401,13.8298 0.6301,13.5098 C1.0701,11.7808 2.6301,10.4998 4.5001,10.4998 C5.0501,10.4998 5.5001,10.9498 5.5001,11.4998 Z" id="Stroke-89" stroke="#000000" stroke-linecap="round" stroke-linejoin="round"></path>
                <path d="M4.5,16 C4.77385763,16 5,15.7738576 5,15.5 L6,15.5 L6,17.5 C6,18.3261424 5.32614237,19 4.5,19 C2.42977783,19 0.648963703,17.5930585 0.14867453,15.6253728 C0.0481543038,15.2679675 0,14.8940635 0,14.5 C0,14.1059365 0.0481543038,13.7320325 0.155658351,13.3518861 C0.169990276,13.3132771 0.169990276,13.3132771 0.171649707,13.3100033 C0.15225349,13.3507309 0.15225349,13.3507309 0.133,13.5 C0.133,12.9124307 0.970755959,12.806344 1.11721744,13.3753666 C1.5124796,14.9110135 2.89415505,16 4.5,16 Z" id="Stroke-93" fill="#000000" fill-rule="nonzero" opacity="0.239999995"></path>
                <path d="M23.8824826,13.3753666 C24.028944,12.806344 24.8667,12.9124307 24.8667,13.5 C24.8474465,13.3507309 24.8474465,13.3507309 24.8280503,13.3100033 C24.8297097,13.3132771 24.8297097,13.3132771 24.8510255,13.3746272 C24.9515457,13.7320325 24.9997,14.1059365 24.9997,14.5 C24.9997,14.8940635 24.9515457,15.2679675 24.8542729,15.613244 C24.3507363,17.5930585 22.5699222,19 20.4997,19 C19.6735576,19 18.9997,18.3261424 18.9997,17.5 L18.9997,15.5 L19.9997,15.5 C19.9997,15.7738576 20.2258424,16 20.4997,16 C22.1061752,16 23.4871248,14.911385 23.8824826,13.3753666 Z" id="Stroke-97" fill="#000000" fill-rule="nonzero" opacity="0.239999995"></path>
                <path d="M4.5,18.5 L4.5,18.5 C3.95,18.5 3.5,18.05 3.5,17.5 L3.5,11.5 C3.5,10.95 3.95,10.5 4.5,10.5 C5.05,10.5 5.5,10.95 5.5,11.5 L5.5,17.5 C5.5,18.05 5.05,18.5 4.5,18.5 Z" id="Stroke-100" stroke="#000000" stroke-linecap="round" stroke-linejoin="round"></path>
                <path d="M24.3701,13.5098 C23.9301,11.7808 22.3701,10.4998 20.5001,10.4998 C21.0501,10.4998 21.5001,10.9498 21.5001,11.4998 L21.5001,17.4998 C21.5001,18.0498 21.0501,18.4998 20.5001,18.4998 C22.3701,18.4998 23.9301,17.2198 24.3701,15.4898 C24.4601,15.1698 24.5001,14.8398 24.5001,14.4998 C24.5001,14.1598 24.4601,13.8298 24.3701,13.5098 Z" id="Stroke-102" stroke="#000000" stroke-linecap="round" stroke-linejoin="round"></path>
                <path d="M4.5,10.5 L4.5,8.5 C4.5,4.1 8.1,0.5 12.5,0.5 C16.9,0.5 20.5,4.1 20.5,8.5 L20.5,10.5" id="Stroke-104" stroke="#000000" stroke-linecap="round" stroke-linejoin="round"></path>
                <path d="M3.5,17.5 L3.5,11.5 C3.5,10.95 3.95,10.5 4.5,10.5 C2.63,10.5 1.07,11.78 0.63,13.51 C0.54,13.83 0.5,14.16 0.5,14.5 C0.5,14.84 0.54,15.17 0.63,15.49 C1.07,17.22 2.63,18.5 4.5,18.5 C3.95,18.5 3.5,18.05 3.5,17.5 Z" id="Stroke-106" stroke="#000000" stroke-linecap="round" stroke-linejoin="round"></path>
                <path d="M20.5,18.5 L20.5,18.5 C19.95,18.5 19.5,18.05 19.5,17.5 L19.5,11.5 C19.5,10.95 19.95,10.5 20.5,10.5 C21.05,10.5 21.5,10.95 21.5,11.5 L21.5,17.5 C21.5,18.05 21.05,18.5 20.5,18.5 Z" id="Stroke-108" stroke="#000000" stroke-linecap="round" stroke-linejoin="round"></path>
                <polyline id="Stroke-110" stroke="#000000" stroke-linecap="round" stroke-linejoin="round" points="8.5 15.5 9.5 16.5 11.5 13.5 13.5 15.5 15.5 12.5 16.5 13.5"></polyline>
            </g>
        </g>
    </g>
</svg>